<?xml version="1.0" encoding="UTF-8" standalone="no"?>
<svg xmlns="http://www.w3.org/2000/svg"
    xmlns:xlink="http://www.w3.org/1999/xlink" width="1200" height="300" viewBox="0 0 1200 300">
    <defs>
        <linearGradient id="bgGradient" x1="0%" y1="0%" x2="100%" y2="0%">
            <stop offset="0%" style="stop-color:#4A00E0;stop-opacity:1" />
            <stop offset="100%" style="stop-color:#8E2DE2;stop-opacity:1" />
        </linearGradient>
        <filter id="blur" x="-50%" y="-50%" width="200%" height="200%">
            <feGaussianBlur in="SourceGraphic" stdDeviation="10" />
        </filter>
    </defs>

    <!-- Background -->
    <rect width="1200" height="300" fill="url(#bgGradient)"/>

    <!-- Decorative elements -->
    <circle cx="250" cy="120" r="80" fill="#ffffff" opacity="0.1" filter="url(#blur)"/>
    <circle cx="900" cy="80" r="100" fill="#ffffff" opacity="0.1" filter="url(#blur)"/>
    <circle cx="600" cy="250" r="120" fill="#ffffff" opacity="0.1" filter="url(#blur)"/>

    <!-- Abstract network elements -->
    <g opacity="0.3" stroke="#ffffff" stroke-width="1.5">
        <!-- Node 1 -->
        <circle cx="300" cy="100" r="8" fill="#ffffff" opacity="0.7"/>
        <!-- Node 2 -->
        <circle cx="450" cy="150" r="6" fill="#ffffff" opacity="0.7"/>
        <!-- Node 3 -->
        <circle cx="600" cy="80" r="10" fill="#ffffff" opacity="0.7"/>
        <!-- Node 4 -->
        <circle cx="750" cy="170" r="7" fill="#ffffff" opacity="0.7"/>
        <!-- Node 5 -->
        <circle cx="850" cy="120" r="9" fill="#ffffff" opacity="0.7"/>

        <!-- Connections -->
        <line x1="300" y1="100" x2="450" y2="150" stroke-dasharray="5,5"/>
        <line x1="450" y1="150" x2="600" y2="80" stroke-dasharray="5,5"/>
        <line x1="600" y1="80" x2="750" y2="170" stroke-dasharray="5,5"/>
        <line x1="750" y1="170" x2="850" y2="120" stroke-dasharray="5,5"/>
        <line x1="300" y1="100" x2="600" y2="80" stroke-dasharray="5,5"/>
        <line x1="450" y1="150" x2="850" y2="120" stroke-dasharray="5,5"/>
    </g>

    <!-- Floating elements -->
    <g opacity="0.4">
        <circle cx="200" cy="200" r="5" fill="#ffffff"/>
        <circle cx="400" cy="220" r="3" fill="#ffffff"/>
        <circle cx="550" cy="180" r="4" fill="#ffffff"/>
        <circle cx="700" cy="230" r="3" fill="#ffffff"/>
        <circle cx="830" cy="190" r="5" fill="#ffffff"/>
        <circle cx="950" cy="210" r="4" fill="#ffffff"/>
    </g>

    <!-- Community elements -->
    <g transform="translate(150, 150)" opacity="0.7" fill="#ffffff">
        <circle cx="-20" cy="-20" r="15"/>
        <circle cx="20" cy="-20" r="15"/>
        <circle cx="0" cy="20" r="15"/>
        <circle cx="0" cy="0" r="30" fill="none" stroke="#ffffff" stroke-width="2"/>
    </g>

    <g transform="translate(1000, 160)" opacity="0.7" fill="#ffffff">
        <circle cx="-15" cy="-15" r="10"/>
        <circle cx="15" cy="-15" r="10"/>
        <circle cx="0" cy="15" r="10"/>
        <circle cx="0" cy="0" r="25" fill="none" stroke="#ffffff" stroke-width="2"/>
    </g>
</svg>
