<svg width="171" height="36" viewBox="0 0 171 36" fill="none"
    xmlns="http://www.w3.org/2000/svg">
    <path fill-rule="evenodd" clip-rule="evenodd" d="M27.8333 18C27.8333 25.0877 22.0877 30.8333 15 30.8333C7.91234 30.8333 2.16666 25.0877 2.16666 18C2.16666 10.9123 7.91234 5.16666 15 5.16666C22.0877 5.16666 27.8333 10.9123 27.8333 18ZM30 18C30 26.2843 23.2843 33 15 33C6.71573 33 0 26.2843 0 18C0 9.71573 6.71573 3 15 3C23.2843 3 30 9.71573 30 18ZM23.2759 11.2759C23.2759 12.1329 22.5812 12.8276 21.7242 12.8276C20.8672 12.8276 20.1725 12.1329 20.1725 11.2759C20.1725 10.4189 20.8672 9.72418 21.7242 9.72418C22.5812 9.72418 23.2759 10.4189 23.2759 11.2759ZM10.4879 19.209C11.1556 21.7009 13.717 23.1797 16.2089 22.512C18.7008 21.8443 20.1796 19.2829 19.5119 16.791C18.8442 14.2991 16.2828 12.8203 13.7909 13.488C11.299 14.1557 9.82015 16.7171 10.4879 19.209ZM8.39503 19.7698C9.37244 23.4175 13.1219 25.5823 16.7696 24.6049C20.4174 23.6274 22.5821 19.878 21.6047 16.2302C20.6273 12.5825 16.8779 10.4177 13.2301 11.3952C9.58236 12.3726 7.41762 16.122 8.39503 19.7698Z" fill="url(#paint0_linear_120_1360)"/>
    <path d="M41.1369 28.3958C39.8175 28.3958 38.6582 28.1696 37.6591 27.7172C36.66 27.2648 35.8683 26.597 35.2839 25.7137C34.7184 24.8115 34.4357 23.714 34.4357 22.4215V13.9757H37.9983V22.0623C37.9983 23.1367 38.271 23.9566 38.8177 24.5222C39.3643 25.0688 40.1466 25.3422 41.1645 25.3422C42.1636 25.3422 42.9458 25.0688 43.5113 24.5222C44.0768 23.9566 44.3596 23.1367 44.3596 22.0623V13.9757H47.9222V22.4215C47.9222 23.714 47.6301 24.8115 47.0458 25.7137C46.4803 26.597 45.698 27.2648 44.6989 27.7172C43.6998 28.1696 42.5405 28.3958 41.1369 28.3958ZM49.9973 28V13.9757H53.5599V28H49.9973ZM51.7786 11.7985C51.1754 11.7985 50.6664 11.6005 50.2517 11.2047C49.837 10.7899 49.6296 10.2904 49.6296 9.706C49.6296 9.12159 49.837 8.63149 50.2517 8.2357C50.6664 7.82105 51.1754 7.61373 51.7786 7.61373C52.3818 7.61373 52.8908 7.82105 53.3055 8.2357C53.7202 8.63149 53.9276 9.12159 53.9276 9.706C53.9276 10.2904 53.7202 10.7899 53.3055 11.2047C52.8908 11.6005 52.3818 11.7985 51.7786 11.7985ZM56.0927 28V13.9757H59.1462V16.0772H59.3724C59.5986 15.4363 60.0038 14.9273 60.5881 14.5504C61.1724 14.1734 61.8699 13.9849 62.6805 13.9849C63.5287 13.9849 64.2356 14.1828 64.801 14.5786C65.3854 14.9556 65.8 15.4552 66.045 16.0772H66.2712C66.5351 15.4929 66.9968 14.9839 67.6565 14.5504C68.3162 14.1171 69.1268 13.9004 70.0882 13.9004C71.2946 13.9004 72.2842 14.2866 73.0571 15.0594C73.8487 15.8134 74.2445 16.9633 74.2445 18.5091V28H70.6819V19.0086C70.6819 18.2735 70.465 17.725 70.0316 17.3669C69.6169 16.99 69.0982 16.8015 68.4762 16.8015C67.7975 16.8015 67.26 17.0183 66.8642 17.4518C66.4684 17.8665 66.2705 18.4415 66.2705 19.177V28H62.7644V18.8672C62.7644 18.263 62.5758 17.7822 62.1988 17.4236C61.8219 17.0464 61.3317 16.8579 60.7285 16.8579C60.3138 16.8579 59.9274 16.9616 59.5693 17.1689C59.2113 17.3575 58.9285 17.6309 58.721 17.9891C58.5136 18.3472 58.4099 18.7713 58.4099 19.2615V28H56.0927ZM77.1914 28V13.9757H80.245V15.9139H80.4712C80.6974 15.2919 81.1403 14.7923 81.7999 14.4153C82.4596 14.0383 83.2137 13.8499 84.0619 13.8499C84.9101 13.8499 85.6453 14.0477 86.2673 14.4435C86.8893 14.8204 87.3416 15.32 87.6244 15.9421H87.8506C88.0956 15.3389 88.5761 14.8393 89.292 14.4435C90.008 14.0477 90.8467 13.8499 91.8082 13.8499C93.0145 13.8499 93.9947 14.2172 94.7487 14.9523C95.5215 15.6686 95.9079 16.7807 95.9079 18.2887V28H93.5906V18.5716C93.5906 17.8553 93.3549 17.286 92.8836 16.8636C92.4124 16.4413 91.8082 16.2301 91.0732 16.2301C90.1494 16.2301 89.4236 16.5033 88.8957 17.0499C88.3679 17.5778 88.1041 18.2546 88.1041 19.0839V28H85.7868V18.4303C85.7868 17.8082 85.5512 17.2954 85.0799 16.8918C84.6086 16.4695 84.0045 16.2583 83.2694 16.2583C82.7417 16.2583 82.2609 16.3714 81.8274 16.5977C81.3939 16.824 81.0492 17.1502 80.793 17.5766C80.5377 18.0031 80.4101 18.5092 80.4101 19.0933V28H77.1914ZM107.209 28V13.9757H109.302V15.9139H109.527C109.697 15.3107 110.055 14.8111 110.603 14.4153C111.169 14.0383 111.85 13.8499 112.642 13.8499C113.47 13.8499 114.171 14.0477 114.746 14.4435C115.33 14.8204 115.717 15.32 115.907 15.9421H116.133C116.36 15.339 116.764 14.8393 117.348 14.4435C117.931 14.0477 118.648 13.8499 119.497 13.8499C120.722 13.8499 121.705 14.2172 122.442 14.9523C123.196 15.6686 123.573 16.7713 123.573 18.2606V28H121.256V18.5716C121.256 17.8553 121.048 17.286 120.633 16.8636C120.218 16.4413 119.684 16.2301 119.033 16.2301C118.196 16.2301 117.542 16.4882 117.07 17.0029C116.598 17.5177 116.362 18.155 116.362 18.9144V28H114.045V18.487C114.045 17.8271 113.837 17.3049 113.422 16.9207C113.007 16.5175 112.464 16.3159 111.792 16.3159C111.319 16.3159 110.884 16.429 110.489 16.6553C110.095 16.8816 109.778 17.2023 109.539 17.6169C109.3 18.0316 109.181 18.5186 109.181 19.0767V28H107.209ZM124.839 28L124.949 26.1056H125.119C125.251 26.2756 125.458 26.4454 125.741 26.6152C126.042 26.7851 126.429 26.9361 126.9 27.0681C127.371 27.1814 127.974 27.238 128.709 27.238C129.858 27.238 130.726 27.0398 131.31 26.6434C131.894 26.247 132.186 25.7137 132.186 25.0444C132.186 24.4787 132.036 24.0264 131.734 23.6871C131.432 23.3479 131.036 23.0839 130.546 22.895C130.057 22.7062 129.507 22.5551 128.899 22.4417C128.309 22.3283 127.729 22.2056 127.157 22.0732C126.585 21.9222 126.036 21.7337 125.526 21.5075C125.037 21.2814 124.644 20.9609 124.342 20.5462C124.04 20.1314 123.889 19.5847 123.889 18.906C123.889 18.0203 124.09 17.2855 124.492 16.7014C124.913 16.0984 125.486 15.6462 126.189 15.345C126.91 15.0245 127.729 14.8643 128.644 14.8643C129.653 14.8643 130.528 15.0057 131.269 15.2882C132.01 15.5521 132.594 15.8726 133.028 16.2496L132.69 18.0826C132.199 17.7056 131.589 17.4135 130.868 17.2062C130.166 16.9801 129.427 16.8672 128.652 16.8672C127.672 16.8672 126.889 17.0276 126.305 17.3482C125.722 17.6687 125.429 18.1401 125.429 18.7621C125.429 19.3277 125.58 19.78 125.881 20.1195C126.183 20.4588 126.576 20.7227 127.066 20.9114C127.555 21.1 128.105 21.2511 128.714 21.3645C129.342 21.478 129.931 21.6102 130.484 21.7611C131.056 21.8932 131.606 22.0815 132.134 22.326C132.661 22.5522 133.091 22.8728 133.424 23.2874C133.756 23.7023 133.922 24.2583 133.922 24.9558C133.922 25.8415 133.703 26.5953 133.263 27.2175C132.842 27.8394 132.219 28.3202 131.395 28.6595C130.59 28.9988 129.625 29.169 128.503 29.169C127.399 29.169 126.442 29.0575 125.638 28.8314C124.852 28.6052 124.246 28.3202 123.83 27.9807L124.839 28ZM141.627 29.1691C140.44 29.1691 139.422 28.9429 138.573 28.4905C137.725 28.0394 137.06 27.3702 136.579 26.483C136.098 25.5957 135.858 24.5029 135.858 23.2064V22.6973H137.717V23.2064C137.717 24.6013 138.017 25.6191 138.615 26.2599C139.213 26.9007 140.206 27.2208 141.599 27.2208C142.786 27.2208 143.7 26.9066 144.342 26.2787C144.983 25.6512 145.303 24.7843 145.303 23.6779C145.303 22.7916 145.041 22.1228 144.514 21.6703C143.987 21.2185 143.246 20.9114 142.289 20.7506L140.152 20.3922C138.817 20.1944 137.782 19.7472 137.048 19.0499C136.314 18.3337 135.946 17.3923 135.946 16.2209C135.946 15.1991 136.22 14.3242 136.768 13.5962C137.333 12.8493 138.079 12.2773 139.004 11.8809C139.95 11.4664 141.013 11.2588 142.193 11.2588C143.299 11.2588 144.272 11.4664 145.114 11.8809C145.973 12.2954 146.648 12.889 147.138 13.6618C147.645 14.4159 147.899 15.3398 147.899 16.4275V16.8327H146.041V16.4275C146.041 15.215 145.726 14.2837 145.096 13.6242C144.485 12.9642 143.522 12.6342 142.193 12.6342C141.087 12.6342 140.219 12.9171 139.577 13.4826C138.96 14.0297 138.648 14.7543 138.648 15.6588C138.648 16.3562 138.855 16.9125 139.267 17.3272C139.698 17.7234 140.351 18.0062 141.245 18.1733L143.383 18.5316C144.697 18.7486 145.727 19.2009 146.461 19.8983C147.196 20.5957 147.564 21.5372 147.564 22.7273C147.564 23.7484 147.271 24.6436 146.686 25.4152C146.103 26.1678 145.319 26.7587 144.342 27.1921C143.383 28.0779 142.617 28.3791 141.627 29.1691ZM149.921 33.655V13.9757H151.728V15.5309H151.954C152.145 15.0407 152.483 14.6354 152.973 14.3151C153.462 13.9745 154.065 13.8048 154.782 13.8048C155.556 13.8048 156.248 13.9933 156.852 14.3703C157.475 14.7473 157.967 15.3224 158.327 16.0951C158.7 16.849 158.888 17.8012 158.888 18.9517V19.4231C158.888 20.536 158.709 21.4973 158.356 22.3078C157.997 23.0991 157.51 23.7214 156.881 24.1736C156.259 24.607 155.543 24.8238 154.744 24.8238C154.011 24.8238 153.394 24.6635 152.881 24.3427C152.386 24.0038 152.033 23.6083 151.822 23.1554H151.596V33.655H149.921ZM154.327 22.9764C155.111 22.9764 155.748 22.6652 156.237 22.0433C156.744 21.4025 157 20.5264 157 19.415V18.9517C157 17.8396 156.744 16.9636 156.237 16.341C155.748 15.7186 155.101 15.4069 154.298 15.4069C153.534 15.4069 152.898 15.7186 152.392 16.341C151.885 16.945 151.632 17.746 151.632 18.7439V19.6392C151.632 20.6369 151.885 21.447 152.392 22.0688C152.917 22.6745 153.563 22.9764 154.327 22.9764ZM160.353 11.2029C160.353 10.8532 160.475 10.5441 160.722 10.2803C160.985 9.99778 161.323 9.85675 161.736 9.85675C162.151 9.85675 162.49 9.99778 162.754 10.2803C163.017 10.5441 163.14 10.8532 163.14 11.2029C163.14 11.5716 163.017 11.88 162.754 12.1438C162.49 12.3888 162.151 12.5111 161.736 12.5111C161.323 12.5111 160.985 12.3888 160.722 12.1438C160.475 11.88 160.353 11.5716 160.353 11.2029ZM160.835 28V13.9757H162.637V28H160.835ZM164.959 28V13.9757H166.761V16.1427H166.986C167.232 15.4263 167.627 14.8606 168.174 14.4459C168.721 14.0312 169.39 13.8233 170.182 13.8233C170.959 13.8233 171.603 14.0125 172.112 14.3892C172.642 14.7661 173.026 15.2844 173.272 15.9446H173.497C173.776 15.2656 174.219 14.7379 174.828 14.3609C175.457 13.9839 176.175 13.7954 176.991 13.7954C178.066 13.7954 178.943 14.1442 179.621 14.8417C180.319 15.5392 180.668 16.5933 180.668 18.0078V28H178.993V17.9513C178.993 16.9724 178.748 16.1897 178.264 15.6055C177.782 14.9965 177.134 14.6923 176.333 14.6923C175.395 14.6923 174.679 15.0036 174.191 15.626C173.704 16.2297 173.459 16.9865 173.459 17.897V28H171.784V17.9513C171.784 16.9536 171.536 16.1616 171.048 15.5774C170.548 14.9738 169.91 14.6737 169.11 14.6737C168.553 14.6737 168.041 14.8231 167.572 15.1226C167.12 15.4034 166.752 15.8087 166.468 16.3366C166.185 16.8457 166.044 17.4493 166.044 18.1469V28H164.959Z" fill="white"/>
    <defs>
        <linearGradient id="paint0_linear_120_1360" x1="15" y1="3" x2="15" y2="33" gradientUnits="userSpaceOnUse">
            <stop stop-color="#877EFF"/>
            <stop offset="0.461458" stop-color="#685DFF"/>
            <stop offset="1" stop-color="#3121FF"/>
        </linearGradient>
    </defs>
</svg>
