<?xml version="1.0" encoding="UTF-8" standalone="no"?>
<svg xmlns="http://www.w3.org/2000/svg"
    xmlns:xlink="http://www.w3.org/1999/xlink" width="1200" height="300" viewBox="0 0 1200 300">
    <defs>
        <linearGradient id="bgGradient" x1="0%" y1="0%" x2="100%" y2="0%">
            <stop offset="0%" style="stop-color:#7B4397;stop-opacity:1" />
            <stop offset="100%" style="stop-color:#DC2430;stop-opacity:1" />
        </linearGradient>
        <filter id="blur" x="-50%" y="-50%" width="200%" height="200%">
            <feGaussianBlur in="SourceGraphic" stdDeviation="10" />
        </filter>
    </defs>

    <!-- Background -->
    <rect width="1200" height="300" fill="url(#bgGradient)"/>

    <!-- Decorative elements -->
    <circle cx="200" cy="150" r="100" fill="#ffffff" opacity="0.1" filter="url(#blur)"/>
    <circle cx="1000" cy="100" r="120" fill="#ffffff" opacity="0.1" filter="url(#blur)"/>
    <circle cx="600" cy="250" r="80" fill="#ffffff" opacity="0.1" filter="url(#blur)"/>

    <!-- Symbolic elements -->
    <!-- Earth symbol -->
    <g transform="translate(300, 150)" stroke="#ffffff" stroke-width="3" fill="none">
        <circle cx="0" cy="0" r="30"/>
        <line x1="-30" y1="0" x2="30" y2="0"/>
        <line x1="0" y1="-30" x2="0" y2="30"/>
    </g>

    <!-- Water symbol -->
    <g transform="translate(450, 150)" stroke="#ffffff" stroke-width="3" fill="none">
        <path d="M-30,0 Q-15,30 0,0 Q15,-30 30,0 Q15,30 0,0 Q-15,-30 -30,0"/>
    </g>

    <!-- Fire symbol -->
    <g transform="translate(600, 150)" stroke="#ffffff" stroke-width="3" fill="none">
        <path d="M0,-30 Q-20,0 0,10 Q20,20 0,30"/>
        <path d="M-15,-20 Q-25,0 -15,10"/>
        <path d="M15,-20 Q25,0 15,10"/>
    </g>

    <!-- Air symbol -->
    <g transform="translate(750, 150)" stroke="#ffffff" stroke-width="3" fill="none">
        <circle cx="0" cy="0" r="30"/>
        <line x1="-30" y1="0" x2="30" y2="0"/>
        <line x1="-20" y1="-15" x2="20" y2="-15"/>
        <line x1="-20" y1="15" x2="20" y2="15"/>
    </g>

    <!-- Text - will be displayed separately in the component -->
</svg>
