<?xml version="1.0" encoding="UTF-8"?>
<svg width="24" height="24" viewBox="0 0 24 24" fill="none"
    xmlns="http://www.w3.org/2000/svg">
    <path d="M9.5 2C8.11929 2 7 3.11929 7 4.5C7 4.77614 7.22386 5 7.5 5C7.77614 5 8 4.77614 8 4.5C8 3.67157 8.67157 3 9.5 3C10.3284 3 11 3.67157 11 4.5V6C11 6.27614 11.2239 6.5 11.5 6.5C11.7761 6.5 12 6.27614 12 6V4.5C12 3.67157 12.6716 3 13.5 3C14.3284 3 15 3.67157 15 4.5C15 4.77614 15.2239 5 15.5 5C15.7761 5 16 4.77614 16 4.5C16 3.11929 14.8807 2 13.5 2C12.8716 2 12.3047 2.26216 11.9062 2.68359C11.5078 2.26216 10.9409 2 10.3125 2H9.5Z" fill="#877EFF"/>
    <path d="M6.5 6C5.11929 6 4 7.11929 4 8.5C4 9.88071 5.11929 11 6.5 11H7C7.27614 11 7.5 10.7761 7.5 10.5V8.5C7.5 7.67157 8.17157 7 9 7H11.5C11.7761 7 12 6.77614 12 6.5C12 6.22386 11.7761 6 11.5 6H9C7.61929 6 6.5 7.11929 6.5 6Z" fill="#877EFF"/>
    <path d="M17.5 6C18.8807 6 20 7.11929 20 8.5C20 9.88071 18.8807 11 17.5 11H17C16.7239 11 16.5 10.7761 16.5 10.5V8.5C16.5 7.67157 15.8284 7 15 7H12.5C12.2239 7 12 6.77614 12 6.5C12 6.22386 12.2239 6 12.5 6H15C16.3807 6 17.5 7.11929 17.5 6Z" fill="#877EFF"/>
    <path d="M7.5 12V14.5C7.5 15.3284 8.17157 16 9 16H15C15.8284 16 16.5 15.3284 16.5 14.5V12C16.5 11.7239 16.7239 11.5 17 11.5H17.5C18.8807 11.5 20 12.6193 20 14C20 15.3807 18.8807 16.5 17.5 16.5C17.2239 16.5 17 16.7761 17 17C17 17.2239 17.2239 17.5 17.5 17.5C19.433 17.5 21 15.933 21 14C21 12.067 19.433 10.5 17.5 10.5H17C16.1716 10.5 15.5 11.1716 15.5 12V14.5C15.5 14.7761 15.2761 15 15 15H9C8.72386 15 8.5 14.7761 8.5 14.5V12C8.5 11.1716 7.82843 10.5 7 10.5H6.5C4.567 10.5 3 12.067 3 14C3 15.933 4.567 17.5 6.5 17.5C6.77614 17.5 7 17.2239 7 17C7 16.7761 6.77614 16.5 6.5 16.5C5.11929 16.5 4 15.3807 4 14C4 12.6193 5.11929 11.5 6.5 11.5H7C7.27614 11.5 7.5 11.7239 7.5 12Z" fill="#877EFF"/>
    <path d="M9 17.5C8.17157 17.5 7.5 18.1716 7.5 19C7.5 19.8284 8.17157 20.5 9 20.5H15C15.8284 20.5 16.5 19.8284 16.5 19C16.5 18.1716 15.8284 17.5 15 17.5H9Z" fill="#877EFF"/>
    <circle cx="10" cy="9" r="1" fill="#877EFF"/>
    <circle cx="14" cy="9" r="1" fill="#877EFF"/>
    <circle cx="12" cy="13" r="0.5" fill="#877EFF"/>
</svg>
