<svg xmlns="http://www.w3.org/2000/svg" width="24" height="24" viewBox="0 0 24 24" fill="none">
    <path fill-rule="evenodd" clip-rule="evenodd" d="M11.25 3C11.25 2.58579 11.5858 2.25 12 2.25C12.4142 2.25 12.75 2.58579 12.75 3V6C12.75 6.41421 12.4142 6.75 12 6.75C11.5858 6.75 11.25 6.41421 11.25 6V3Z" fill="#877EFF"/>
    <path fill-rule="evenodd" clip-rule="evenodd" d="M9.25 6.5C8.55964 6.5 8 7.05964 8 7.75V8C8 8.41421 7.66421 8.75 7.25 8.75C6.83579 8.75 6.5 8.41421 6.5 8V7.75C6.5 6.23122 7.73122 5 9.25 5H14.75C16.2688 5 17.5 6.23122 17.5 7.75V8C17.5 8.41421 17.1642 8.75 16.75 8.75C16.3358 8.75 16 8.41421 16 8V7.75C16 7.05964 15.4404 6.5 14.75 6.5H9.25Z" fill="#877EFF"/>
    <path fill-rule="evenodd" clip-rule="evenodd" d="M5.25 8C5.25 7.58579 5.58579 7.25 6 7.25H18C18.4142 7.25 18.75 7.58579 18.75 8V18C18.75 18.1989 18.671 18.3897 18.5303 18.5303C18.3897 18.671 18.1989 18.75 18 18.75H6C5.80109 18.75 5.61032 18.671 5.46967 18.5303C5.32902 18.3897 5.25 18.1989 5.25 18V8ZM6.75 8.75V17.25H17.25V8.75H6.75Z" fill="#877EFF"/>
    <path fill-rule="evenodd" clip-rule="evenodd" d="M11.25 8C11.25 7.58579 11.5858 7.25 12 7.25C12.4142 7.25 12.75 7.58579 12.75 8V18C12.75 18.4142 12.4142 18.75 12 18.75C11.5858 18.75 11.25 18.4142 11.25 18V8Z" fill="#877EFF"/>
    <path d="M5 20.25C4.58579 20.25 4.25 20.5858 4.25 21C4.25 21.4142 4.58579 21.75 5 21.75H19C19.4142 21.75 19.75 21.4142 19.75 21C19.75 20.5858 19.4142 20.25 19 20.25H5Z" fill="#877EFF"/>
    <path d="M9 15.5L7 17.5" stroke="#877EFF" stroke-width="1.5" stroke-linecap="round"/>
    <path d="M15 15.5L17 17.5" stroke="#877EFF" stroke-width="1.5" stroke-linecap="round"/>
</svg>
